<svg width="584" height="360" viewBox="0 0 584 360" fill="none" xmlns="http://www.w3.org/2000/svg">
<path d="M532.673 345.546C516.317 347.533 44.1199 339.797 44.1199 339.797C0.953279 319.209 -12.6034 254.195 14.9299 229.867C72.6099 178.945 35.2533 151.859 40.8766 113.089C52.3099 34.3103 148.42 91.8462 189.207 58.8016C360.193 -79.7098 365.957 75.0902 438.64 61.863C573.927 37.2549 494.267 163.708 557.92 215.611C605.683 254.615 579.923 339.844 532.673 345.546Z" fill="#F1FAEE"/>
<path d="M301.067 359.264C454.289 359.264 578.5 348.707 578.5 335.684C578.5 322.661 454.289 312.104 301.067 312.104C147.844 312.104 23.6333 322.661 23.6333 335.684C23.6333 348.707 147.844 359.264 301.067 359.264Z" fill="#B8D0FC"/>
<path d="M233.237 85.3495C232.467 88.8549 232.28 92.6641 230.157 95.562C227.613 99.044 222.643 100.516 220.963 104.512C219.353 108.298 221.29 113.253 218.7 116.454C217.323 118.184 214.873 118.955 213.893 120.941C213.473 121.806 213.403 122.811 213.45 123.769C213.753 129.705 219.307 134.893 225.257 134.776C232.887 134.612 238.603 127.228 246.14 126.012C250.223 125.358 254.377 126.597 258.483 126.106C265.927 125.241 272.04 117.95 271.597 110.448C271.503 108.929 271.2 107.434 271.27 105.915C271.34 104.512 271.737 103.134 272.017 101.755C273.347 95.1647 271.737 88.037 267.677 82.6853C263.617 77.3337 257.177 73.8516 250.503 73.3842C243.223 72.8234 234.87 78.0815 233.237 85.3495Z" fill="#080435"/>
<path d="M275.937 146.204C275.937 146.204 287.067 174.084 311.543 193.434L317.727 191.143C317.727 191.143 297.053 170.555 285.76 141.717L275.937 146.204Z" fill="#FFA089"/>
<path d="M229.503 146.344C229.503 146.344 218.513 178.641 206.217 193.434L200.267 190.816C200.267 190.816 216.46 158.356 218.07 140.245L229.503 146.344Z" fill="#FFA089"/>
<path d="M260.887 115.333C260.887 115.333 276.8 120.1 279.693 123.512C282.587 126.924 289.237 147.793 289.237 147.793L277.943 154.173L275.05 151.275L268.097 186.914H240.33L229.923 149.546L227.893 155.061L212.563 149.265C212.563 149.265 221.523 125.218 227.03 122.016C232.537 118.838 245.837 115.356 245.837 115.356H260.887V115.333Z" fill="#4C4BF4"/>
<path d="M223.273 218.205C223.273 218.205 223.857 209.208 225.583 201.099C227.333 192.99 238.65 180.814 238.347 179.739C238.043 178.664 240.353 139.099 240.353 139.099H274.49C274.49 139.099 279.273 145.479 278.83 148.961C278.41 152.443 275.657 156.206 275.657 156.206L272.903 182.006C272.903 182.006 278.69 198.809 279.857 204.745C281 210.68 223.273 218.205 223.273 218.205Z" fill="#FF6760"/>
<path d="M240.353 139.099L237.646 117.74L244.156 115.8L248.31 141.062L240.353 139.099Z" fill="#FF6760"/>
<path d="M274.49 139.099L272.437 119.422L266.907 117.319L268.913 142.348L274.49 139.099Z" fill="#FF6760"/>
<path d="M265.017 93.4587C265.017 93.4587 265.903 91.706 266.837 92.2668C269.193 93.6924 267.093 96.2163 265.717 96.8473L265.017 93.4587Z" fill="#EF8474"/>
<path d="M249.267 75.3239C242.687 76.5158 237.973 82.5451 238.393 89.2288C238.533 91.4256 239.187 93.4353 240.213 95.2114C242.57 99.6049 244.483 103.157 246.677 105.634C248.893 108.158 250.13 111.383 250.037 114.725L249.99 117.459C258.11 120.427 260.98 116.688 260.98 116.688L260.117 109.163C268.307 107.223 265.46 91.9864 264.947 87.4294H264.923C264.923 87.2658 264.9 87.0788 264.877 86.9152C264.013 79.3201 256.92 73.9451 249.267 75.3239Z" fill="#FFA089"/>
<path d="M249.64 88.8315C247.633 91.8462 245.463 94.8375 244.086 98.1794C243.923 98.5533 242.873 101.311 243.293 101.568C240.96 100.189 239.326 97.8989 237.88 95.6087C235.383 91.6125 235.406 86.4712 237.413 82.2881C239.396 78.1517 243.223 75.6745 247.656 74.8098C252.416 73.875 257.83 74.8799 261.236 78.5489C264.41 82.0076 265.086 86.7517 265.903 91.1685C264.97 86.1908 257.83 83.2229 253.583 81.9142C253.7 81.9609 251.086 86.5881 250.923 86.8218C250.526 87.4761 250.083 88.1538 249.64 88.8315Z" fill="#080435"/>
<path d="M244.67 98.4598C244.413 98.0625 243.993 97.7821 243.527 97.6418C242.57 97.3848 240.913 97.1511 239.933 98.3897C238.51 100.212 242.267 104.139 245.23 101.615C245.253 101.615 246.07 100.586 244.67 98.4598Z" fill="#FFA089"/>
<path d="M262.963 93.856C262.963 93.225 262.427 92.7109 261.773 92.7109C261.143 92.7109 260.63 93.2484 260.63 93.9027C260.63 94.5337 261.167 95.0478 261.82 95.0478C262.473 95.0478 262.963 94.487 262.963 93.856Z" fill="#080435"/>
<path d="M252.206 96.3098C252.206 95.6788 251.67 95.1647 251.04 95.1647C250.41 95.1647 249.896 95.7022 249.896 96.3565C249.896 96.9875 250.433 97.5016 251.063 97.5016C251.716 97.4783 252.23 96.9641 252.206 96.3098Z" fill="#080435"/>
<path d="M261.797 101.989C261.797 101.989 260.257 100.89 259.673 101.077C259.09 101.264 258.787 101.989 258.787 101.989C258.787 101.989 258.413 101.288 257.69 101.288C256.967 101.311 255.473 103.297 255.473 103.297C255.473 103.297 257.62 106.405 259.79 105.938C262.007 105.447 261.75 102.152 261.75 102.152L261.797 101.989Z" fill="#FF6760"/>
<path d="M248.59 94.9777C248.45 95.0011 248.31 94.9543 248.193 94.8608C248.007 94.6739 247.983 94.3701 248.17 94.1831C248.217 94.113 249.547 92.7576 251.693 92.5706C251.95 92.5473 252.183 92.7342 252.207 93.0147C252.23 93.2717 252.02 93.5288 251.763 93.5288C249.967 93.669 248.893 94.8141 248.87 94.8375C248.8 94.9076 248.707 94.9777 248.59 94.9777Z" fill="#080435"/>
<path d="M259.673 91.5658C259.533 91.5424 259.417 91.4723 259.323 91.3554C259.183 91.1217 259.23 90.8413 259.463 90.6777C259.533 90.631 261.12 89.6027 263.267 89.9533C263.523 90 263.71 90.2337 263.663 90.5141C263.617 90.7712 263.36 90.9582 263.103 90.9114C261.33 90.631 260 91.4957 259.977 91.4957C259.883 91.5424 259.767 91.5658 259.673 91.5658Z" fill="#080435"/>
<path d="M257.9 100.119C259.23 99.7451 259.58 98.6701 259.557 98.0859C259.557 97.9924 259.51 97.8756 259.44 97.8055C258.04 96.45 257.923 94.2533 257.923 94.2299C257.923 93.9962 257.713 93.8326 257.503 93.8326C257.293 93.8326 257.107 94.043 257.13 94.2533C257.13 94.3468 257.247 96.6604 258.763 98.2495C258.717 98.5767 258.483 99.3245 257.177 99.418C256.943 99.4413 256.78 99.6283 256.803 99.8386C256.827 100.072 257.013 100.236 257.223 100.213C257.457 100.213 257.69 100.166 257.9 100.119Z" fill="#EF8474"/>
<path d="M261.797 101.989L255.473 103.297C255.473 103.297 257.83 104.863 259.557 104.583C261.283 104.349 261.797 101.989 261.797 101.989Z" fill="#F9F9FB"/>
<path d="M271.877 146.204H246.14V143.586H271.877V146.204Z" fill="#080435"/>
<path d="M310.12 190.676C310.12 190.676 314.203 199.113 316.023 199.463C317.843 199.837 323.35 200.164 324.19 200.421C325.053 200.678 329.137 203.039 330.023 202.969C330.887 202.898 326.36 199.113 326.36 199.113C326.36 199.113 330.677 201.8 331.377 201.169C332.077 200.538 327.69 197.243 327.69 197.243C327.69 197.243 331.983 200.117 332.427 199.37C332.87 198.622 328.74 195.771 328.74 195.771C328.74 195.771 332.1 197.944 332.45 197.36C332.777 196.752 327.783 192.289 325.1 192.359C318.8 192.546 316.7 190.349 316.7 190.349L310.12 190.676Z" fill="#FFA089"/>
<path d="M313.27 196.378C313.27 196.378 315.953 200.912 317.447 201.777C318.94 202.641 321.787 204.745 322.137 204.09C322.487 203.436 318.707 200.234 318.777 199.65C318.847 199.089 316.933 198.014 316.933 198.014L313.27 196.378Z" fill="#FFA089"/>
<path d="M210.37 187.264C210.37 187.264 206.287 195.701 204.467 196.051C202.647 196.425 197.14 196.752 196.3 197.009C195.437 197.266 191.353 199.627 190.467 199.557C189.603 199.486 194.13 195.701 194.13 195.701C194.13 195.701 189.813 198.388 189.113 197.757C188.413 197.126 192.8 193.831 192.8 193.831C192.8 193.831 188.507 196.705 188.063 195.958C187.62 195.21 191.75 192.359 191.75 192.359C191.75 192.359 188.39 194.532 188.04 193.948C187.713 193.34 192.707 188.877 195.39 188.947C201.69 189.134 203.79 186.937 203.79 186.937L210.37 187.264Z" fill="#FFA089"/>
<path d="M207.22 192.99C207.22 192.99 204.537 197.523 203.043 198.388C201.55 199.253 198.703 201.356 198.353 200.702C198.003 200.047 201.783 196.846 201.713 196.261C201.643 195.701 203.557 194.626 203.557 194.626L207.22 192.99Z" fill="#FFA089"/>
<path d="M466.733 193.434H161.603V336.315H466.733V193.434Z" fill="#3238C2"/>
<path d="M518.93 205.82H129.8C126.393 205.82 123.617 203.039 123.617 199.627C123.617 196.215 126.393 193.434 129.8 193.434H518.907C522.313 193.434 525.09 196.215 525.09 199.627C525.113 203.062 522.337 205.82 518.93 205.82Z" fill="#7798F8"/>
<path d="M288.28 180.978H349.087L355.783 139.614H294.977L288.28 180.978Z" fill="#080435"/>
<path d="M325.38 172.284H314.81V193.434H325.38V172.284Z" fill="#080435"/>
<path d="M378.627 193.434H350.743L353.45 182.66H381.123L378.627 193.434Z" fill="#080435"/>
<path d="M365.373 193.434H393.257L390.55 182.66H362.877L365.373 193.434Z" fill="#0F0855"/>
<path d="M360.963 172.284H392.673C393.233 172.284 393.583 171.817 393.443 171.233L390.993 160.786C390.853 160.202 390.293 159.735 389.733 159.735H358C357.44 159.735 357.09 160.202 357.23 160.786L359.68 171.233C359.82 171.817 360.38 172.284 360.963 172.284Z" fill="#0F0855"/>
<path d="M362.783 170.461H390.62C391.134 170.461 391.437 170.041 391.32 169.527L389.523 162.048C389.407 161.534 388.893 161.114 388.38 161.114H360.544C360.03 161.114 359.727 161.534 359.844 162.048L361.64 169.527C361.757 170.041 362.27 170.461 362.783 170.461Z" fill="#B8D0FC"/>
<path d="M378.58 172.284H372.583V182.66H378.58V172.284Z" fill="#0F0855"/>
<path d="M410.127 180.253H406.02V193.434H410.127V180.253Z" fill="#0F0855"/>
<path d="M412.927 183.151H402.87C401.913 183.151 400.957 182.38 400.723 181.422L395.87 160.786C395.637 159.828 396.243 159.057 397.2 159.057H407.257C408.213 159.057 409.17 159.828 409.403 160.786L414.257 181.422C414.467 182.38 413.883 183.151 412.927 183.151Z" fill="#080435"/>
<path d="M415.96 183.151H405.903C404.947 183.151 403.99 182.38 403.757 181.422L398.903 160.786C398.67 159.828 399.277 159.057 400.233 159.057H410.29C411.247 159.057 412.203 159.828 412.437 160.786L417.29 181.422C417.523 182.38 416.94 183.151 415.96 183.151Z" fill="#0F0855"/>
<path d="M412.507 167.657H402.077L400.723 161.838H411.153L412.507 167.657Z" fill="#B8D0FC"/>
<path d="M405.623 172.588H403.593C403.313 172.588 403.057 172.378 402.987 172.097L402.66 170.672C402.59 170.391 402.753 170.181 403.033 170.181H405.063C405.343 170.181 405.6 170.391 405.67 170.672L405.997 172.097C406.067 172.378 405.903 172.588 405.623 172.588Z" fill="#B8D0FC"/>
<path d="M409.473 172.588H407.443C407.163 172.588 406.907 172.378 406.837 172.097L406.51 170.672C406.44 170.391 406.603 170.181 406.883 170.181H408.913C409.193 170.181 409.45 170.391 409.52 170.672L409.847 172.097C409.917 172.378 409.753 172.588 409.473 172.588Z" fill="#B8D0FC"/>
<path d="M413.323 172.588H411.293C411.013 172.588 410.757 172.378 410.687 172.097L410.36 170.672C410.29 170.391 410.453 170.181 410.733 170.181H412.763C413.043 170.181 413.3 170.391 413.37 170.672L413.697 172.097C413.743 172.378 413.58 172.588 413.323 172.588Z" fill="#B8D0FC"/>
<path d="M406.347 175.649H404.317C404.037 175.649 403.78 175.439 403.71 175.159L403.383 173.733C403.313 173.453 403.477 173.242 403.757 173.242H405.787C406.067 173.242 406.323 173.453 406.393 173.733L406.72 175.159C406.79 175.439 406.627 175.649 406.347 175.649Z" fill="#B8D0FC"/>
<path d="M410.197 175.649H408.167C407.887 175.649 407.63 175.439 407.56 175.159L407.233 173.733C407.163 173.453 407.327 173.242 407.607 173.242H409.637C409.917 173.242 410.173 173.453 410.243 173.733L410.57 175.159C410.64 175.439 410.477 175.649 410.197 175.649Z" fill="#B8D0FC"/>
<path d="M414.047 175.649H412.017C411.737 175.649 411.48 175.439 411.41 175.159L411.083 173.733C411.013 173.453 411.177 173.242 411.457 173.242H413.487C413.767 173.242 414.023 173.453 414.093 173.733L414.42 175.159C414.467 175.439 414.303 175.649 414.047 175.649Z" fill="#B8D0FC"/>
<path d="M407.117 178.874H405.087C404.807 178.874 404.55 178.664 404.48 178.384L404.153 176.958C404.083 176.678 404.247 176.467 404.527 176.467H406.557C406.837 176.467 407.093 176.678 407.163 176.958L407.49 178.384C407.537 178.664 407.373 178.874 407.117 178.874Z" fill="#B8D0FC"/>
<path d="M410.943 178.874H408.913C408.633 178.874 408.377 178.664 408.307 178.384L407.98 176.958C407.91 176.678 408.073 176.467 408.353 176.467H410.383C410.663 176.467 410.92 176.678 410.99 176.958L411.317 178.384C411.387 178.664 411.223 178.874 410.943 178.874Z" fill="#B8D0FC"/>
<path d="M414.793 178.874H412.763C412.483 178.874 412.227 178.664 412.157 178.384L411.83 176.958C411.76 176.678 411.923 176.467 412.203 176.467H414.233C414.513 176.467 414.77 176.678 414.84 176.958L415.167 178.384C415.237 178.664 415.073 178.874 414.793 178.874Z" fill="#B8D0FC"/>
<path d="M355.083 233.746H308.137C305.22 233.746 302.863 232.157 302.863 230.194V205.82H303.237V230.194C303.237 231.947 305.43 233.372 308.137 233.372H355.083C357.79 233.372 359.983 231.947 359.983 230.194V205.82H360.357V230.194C360.357 232.157 358 233.746 355.083 233.746Z" fill="#080435"/>
<path d="M364.393 311.357H307.203L310.657 247.885H359.797L364.393 311.357Z" fill="#DAE6FF"/>
<path d="M352.797 231.105H348.247V260.738H352.797V231.105Z" fill="#080435"/>
<path d="M321.88 231.105H317.33V260.738H321.88V231.105Z" fill="#080435"/>
<path d="M420.37 233.746H373.423C370.507 233.746 368.15 232.157 368.15 230.194V205.82H368.523V230.194C368.523 231.947 370.717 233.372 373.423 233.372H420.37C423.077 233.372 425.27 231.947 425.27 230.194V205.82H425.643V230.194C425.643 232.157 423.287 233.746 420.37 233.746Z" fill="#080435"/>
<path d="M418.713 293.526H374.217L376.9 244.146H415.12L418.713 293.526Z" fill="#FF6760"/>
<path d="M409.707 231.105H406.16V254.148H409.707V231.105Z" fill="#080435"/>
<path d="M385.65 231.105H382.103V254.148H385.65V231.105Z" fill="#080435"/>
<path d="M268.983 242.627H200.873V286.585H268.983V242.627Z" fill="#DAE6FF"/>
<path d="M291.99 288.384H193.407C180.317 288.384 169.653 277.704 169.653 264.594C169.653 258.237 172.127 252.278 176.607 247.768C181.087 243.281 187.06 240.804 193.407 240.804H291.99V244.426H193.407C188.017 244.426 182.977 246.529 179.173 250.339C175.37 254.148 173.27 259.219 173.27 264.594C173.27 275.718 182.3 284.762 193.407 284.762H291.99V288.384Z" fill="#DAE6FF"/>
<path d="M233.983 279.434C242.166 279.434 248.8 272.79 248.8 264.594C248.8 256.398 242.166 249.754 233.983 249.754C225.8 249.754 219.167 256.398 219.167 264.594C219.167 272.79 225.8 279.434 233.983 279.434Z" fill="#FF6760"/>
<path d="M241.427 262.724H225.887V266.3H241.427V262.724Z" fill="#DAE6FF"/>
<path d="M293.227 237.555H288.28V336.315H293.227V237.555Z" fill="#DAE6FF"/>
<path d="M96.1766 138.562C102.64 139.894 108.45 144.568 109.103 154.71C109.733 164.315 104.483 173.827 107.073 183.361C109.733 193.13 117.34 196.472 114.563 208.554C113.583 212.854 111.973 217.06 112.067 221.571C112.23 231.035 118.833 236.831 122.077 244.239C126.253 253.821 124.69 267.024 119.16 274.9C108.613 289.88 90.74 284.505 77.44 283.079C69.7166 282.261 62.74 276.723 60.8033 265.482C58.5633 252.442 64.4433 246.155 68.1066 235.849C71.6766 225.824 67.29 213.999 67.1733 202.782C67.0566 190.255 74.29 183.361 75.62 171.864C76.5766 163.544 73.24 154.967 76.5533 147.092C78.3266 142.932 81.5933 140.361 84.9533 139.24C88.2666 138.141 92.3266 137.767 96.1766 138.562Z" fill="#B8D0FC"/>
<path d="M93.1201 198.552H91.5801V316.825H93.1201V198.552Z" fill="#89B4FD"/>
<path d="M93.0491 251.242L80.0935 222.846L78.6929 223.487L91.6485 251.883L93.0491 251.242Z" fill="#89B4FD"/>
<path d="M105.743 254.185L104.479 253.304L91.7236 271.661L92.9876 272.542L105.743 254.185Z" fill="#89B4FD"/>
<path d="M106.023 336.97H78C77.1834 336.97 76.53 336.315 76.53 335.497V312.478H107.493V335.497C107.493 336.315 106.817 336.97 106.023 336.97Z" fill="#89B4FD"/>
<path d="M335.787 80.9793C345.915 80.9793 354.127 72.7555 354.127 62.6108C354.127 52.4662 345.915 44.2424 335.787 44.2424C325.658 44.2424 317.447 52.4662 317.447 62.6108C317.447 72.7555 325.658 80.9793 335.787 80.9793Z" fill="#89B4FD"/>
<path d="M335.437 77.1C343.491 77.1 350.02 70.5606 350.02 62.494C350.02 54.4273 343.491 47.888 335.437 47.888C327.382 47.888 320.853 54.4273 320.853 62.494C320.853 70.5606 327.382 77.1 335.437 77.1Z" fill="white"/>
<path d="M335.413 63.9663C336.315 63.9663 337.046 63.2339 337.046 62.3304C337.046 61.4269 336.315 60.6945 335.413 60.6945C334.511 60.6945 333.78 61.4269 333.78 62.3304C333.78 63.2339 334.511 63.9663 335.413 63.9663Z" fill="#7798F8"/>
<path d="M335.413 62.6575H335.086C334.9 62.6575 334.76 62.5173 334.76 62.3303C334.76 62.1434 334.9 62.0031 335.086 62.0031L335.11 51.9309L334.713 52.5151C334.62 52.6553 334.41 52.702 334.27 52.6086C334.13 52.5151 334.083 52.3048 334.176 52.1645L335.18 50.7156C335.25 50.5988 335.413 50.552 335.553 50.5988C335.693 50.6455 335.786 50.7624 335.786 50.9026L335.763 62.3537C335.74 62.5173 335.6 62.6575 335.413 62.6575Z" fill="#7798F8"/>
<path d="M336.533 52.5619C336.44 52.5619 336.347 52.5152 336.277 52.4451L335.18 51.0896C335.063 50.9494 335.087 50.7391 335.227 50.6222C335.367 50.5054 335.577 50.5288 335.693 50.669L336.79 52.0244C336.907 52.1646 336.883 52.375 336.743 52.4918C336.673 52.5385 336.603 52.5619 336.533 52.5619Z" fill="#7798F8"/>
<path d="M329.557 63.7092C329.463 63.7092 329.393 63.6859 329.323 63.6158L328.367 62.6109C328.273 62.5174 328.25 62.3772 328.297 62.2603C328.343 62.1435 328.46 62.0734 328.6 62.0734L336.207 62.0967C336.393 62.0967 336.533 62.237 336.533 62.4239V62.7511C336.533 62.938 336.393 63.0783 336.207 63.0783C336.02 63.0783 335.88 62.938 335.88 62.7511L329.37 62.7277L329.79 63.1717C329.907 63.312 329.907 63.4989 329.79 63.6391C329.697 63.6859 329.627 63.7092 329.557 63.7092Z" fill="#7798F8"/>
<path d="M328.576 62.7043C328.506 62.7043 328.436 62.681 328.366 62.6342C328.226 62.5174 328.203 62.307 328.32 62.1668L329.23 61.0685C329.346 60.9282 329.556 60.9049 329.696 61.0217C329.836 61.1386 329.86 61.3489 329.743 61.4891L328.833 62.5875C328.763 62.681 328.67 62.7043 328.576 62.7043Z" fill="#7798F8"/>
<path d="M143.963 167.47C143.847 167.47 143.707 167.423 143.613 167.33C143.403 167.143 143.38 166.816 143.59 166.605L156.68 152.186C156.867 151.976 157.193 151.953 157.403 152.163C157.613 152.35 157.637 152.677 157.427 152.887L144.337 167.307C144.243 167.4 144.103 167.47 143.963 167.47Z" fill="#080435"/>
<path d="M152.13 158.566C151.99 158.566 151.827 158.52 151.71 158.403C151.453 158.169 151.43 157.772 151.663 157.538L156.587 152.116C156.82 151.859 157.217 151.836 157.45 152.07C157.707 152.303 157.73 152.701 157.497 152.934L152.573 158.356C152.457 158.496 152.293 158.566 152.13 158.566Z" fill="#FF6760"/>
<path d="M171.38 167.47C171.24 167.47 171.1 167.424 171.007 167.307L157.894 152.864C157.707 152.654 157.707 152.327 157.917 152.14C158.127 151.953 158.454 151.953 158.64 152.163L171.73 166.582C171.917 166.793 171.917 167.12 171.707 167.307C171.614 167.424 171.497 167.47 171.38 167.47Z" fill="#080435"/>
<path d="M163.19 158.566C163.027 158.566 162.863 158.496 162.723 158.356L157.8 152.934C157.567 152.677 157.59 152.28 157.847 152.07C158.103 151.836 158.5 151.859 158.71 152.116L163.633 157.538C163.867 157.795 163.843 158.192 163.587 158.403C163.493 158.52 163.353 158.566 163.19 158.566Z" fill="#FF6760"/>
<path d="M179.99 193.551H138.06C137.757 193.551 137.5 193.293 137.5 192.99C137.5 192.686 137.757 192.429 138.06 192.429H179.57L186.71 167.47H128.773C128.47 167.47 128.213 167.213 128.213 166.909C128.213 166.605 128.47 166.348 128.773 166.348H187.457C187.62 166.348 187.807 166.442 187.9 166.559C187.993 166.699 188.04 166.886 187.993 167.049L180.527 193.107C180.457 193.387 180.247 193.551 179.99 193.551Z" fill="#080435"/>
<path d="M136.217 193.551H178.147C178.45 193.551 178.707 193.293 178.707 192.99C178.707 192.686 178.45 192.429 178.147 192.429H136.637L129.497 167.47H187.433C187.737 167.47 187.993 167.213 187.993 166.909C187.993 166.605 187.737 166.348 187.433 166.348H128.773C128.61 166.348 128.423 166.442 128.33 166.559C128.237 166.699 128.19 166.886 128.237 167.049L135.703 193.107C135.75 193.387 135.983 193.551 136.217 193.551Z" fill="#080435"/>
<path d="M166.69 192.849C166.643 192.849 166.62 192.849 166.573 192.826C166.27 192.756 166.083 192.476 166.153 192.172L171.613 166.816C171.683 166.512 171.987 166.325 172.267 166.395C172.57 166.465 172.757 166.746 172.687 167.049L167.227 192.405C167.157 192.663 166.947 192.849 166.69 192.849Z" fill="#080435"/>
<path d="M148.537 193.551C148.28 193.551 148.07 193.387 148 193.13L141.653 167.073C141.583 166.769 141.77 166.465 142.05 166.395C142.353 166.325 142.657 166.512 142.727 166.792L149.073 192.849C149.143 193.153 148.957 193.457 148.677 193.527C148.63 193.551 148.583 193.551 148.537 193.551Z" fill="#080435"/>
<path d="M158.103 193.551C157.8 193.551 157.543 193.294 157.543 192.99V166.933C157.543 166.629 157.8 166.372 158.103 166.372C158.407 166.372 158.663 166.629 158.663 166.933V192.99C158.663 193.317 158.407 193.551 158.103 193.551Z" fill="#080435"/>
<path d="M185.24 174.925H130.827C130.523 174.925 130.29 174.691 130.29 174.388C130.29 174.084 130.523 173.85 130.827 173.85H185.24C185.543 173.85 185.777 174.084 185.777 174.388C185.777 174.691 185.52 174.925 185.24 174.925Z" fill="#080435"/>
<path d="M182.603 184.436H133.627C133.323 184.436 133.09 184.203 133.09 183.899C133.09 183.595 133.323 183.361 133.627 183.361H182.603C182.907 183.361 183.14 183.595 183.14 183.899C183.14 184.179 182.883 184.436 182.603 184.436Z" fill="#080435"/>
<path d="M188.553 167.517H126.79C126.487 167.517 126.23 167.26 126.23 166.956C126.23 166.652 126.487 166.395 126.79 166.395H188.553C188.857 166.395 189.113 166.652 189.113 166.956C189.113 167.26 188.857 167.517 188.553 167.517Z" fill="#FF6760"/>
</svg>
