<?xml version="1.0" encoding="UTF-8" standalone="no"?>
<!-- Generator: Adobe Illustrator 24.3.0, SVG Export Plug-In . SVG Version: 6.00 Build 0)  -->

<svg
   version="1.1"
   id="Слой_1"
   x="0px"
   y="0px"
   viewBox="0 0 32 32"
   style="enable-background:new 0 0 32 32;"
   xml:space="preserve"
   sodipodi:docname="Favicon 32x32 белый фон2.svg"
   inkscape:version="1.1.1 (3bf5ae0d25, 2021-09-20)"
   xmlns:inkscape="http://www.inkscape.org/namespaces/inkscape"
   xmlns:sodipodi="http://sodipodi.sourceforge.net/DTD/sodipodi-0.dtd"
   xmlns="http://www.w3.org/2000/svg"
   xmlns:svg="http://www.w3.org/2000/svg"><defs
   id="defs45" /><sodipodi:namedview
   id="namedview43"
   pagecolor="#ffffff"
   bordercolor="#666666"
   borderopacity="1.0"
   inkscape:pageshadow="2"
   inkscape:pageopacity="0.0"
   inkscape:pagecheckerboard="true"
   showgrid="false"
   inkscape:zoom="27.28125"
   inkscape:cx="15.981672"
   inkscape:cy="18.932417"
   inkscape:window-width="2560"
   inkscape:window-height="1369"
   inkscape:window-x="-8"
   inkscape:window-y="-8"
   inkscape:window-maximized="1"
   inkscape:current-layer="layer2" />
<style
   type="text/css"
   id="style2">
	.st0{fill:#2DABDC;}
</style>

<g
   inkscape:groupmode="layer"
   id="layer2"
   inkscape:label="Layer 2"
   style="display:inline"><g
     inkscape:groupmode="layer"
     id="layer1"
     inkscape:label="Layer 1"
     style="display:inline" /><rect
     style="fill:#ffffff"
     id="rect73"
     width="32.036655"
     height="31.963345"
     x="-0.036655214"
     y="0"
     ry="0.050000001" /><g
     id="g40">
	<rect
   x="4.9000001"
   y="4.9000001"
   width="5.0999999"
   height="5.0999999"
   id="rect4" />
	<g
   id="g16">
		<g
   id="g14">
			<g
   id="g8">
				<rect
   x="12.7"
   y="12.7"
   class="st0"
   width="2.2"
   height="2.2"
   id="rect6" />
			</g>
			<g
   id="g12">
				<path
   class="st0"
   d="M 2.8,0 C 1.2,0 0,1.3 0,2.8 V 14.9 H 10.1 V 12.7 H 2.2 V 2.8 C 2.2,2.4 2.5,2.1 2.9,2.1 h 9.9 v 8 H 15 V 0 Z"
   id="path10" />
			</g>
		</g>
	</g>
	<rect
   x="4.9000001"
   y="22"
   width="5.0999999"
   height="5.0999999"
   id="rect18" />
	<rect
   x="12.7"
   y="22.5"
   width="2.2"
   height="2.2"
   id="rect20" />
	<path
   d="M 12.7,29.8 H 2.8 C 2.4,29.8 2.1,29.5 2.1,29.1 V 19.2 H 14.8 V 17 H 0 V 29.1 C 0,30.7 1.2,32 2.8,32 h 12.1 v -5.4 h -2.2 z"
   id="path22" />
	<rect
   x="22"
   y="4.9000001"
   width="5.0999999"
   height="5.0999999"
   id="rect24" />
	<path
   d="m 19.3,2.2 h 9.9 c 0.4,0 0.7,0.3 0.7,0.7 v 9.9 h -8 V 15 H 32 V 2.8 C 32,1.3 30.8,0 29.2,0 H 17.1 v 14.9 h 2.2 z"
   id="path26" />
	<rect
   x="22"
   y="22"
   width="5.0999999"
   height="5.0999999"
   id="rect28" />
	<polygon
   points="27.1,17.1 27.1,19.3 29.8,19.3 29.8,23.7 32,23.7 32,17.1 "
   id="polygon30" />
	<g
   id="g36">
		<polygon
   class="st0"
   points="19.3,19.3 24.5,19.3 24.5,17.1 19.3,17.1 17.1,17.1 17.1,19.3 17.1,20.9 19.3,20.9 "
   id="polygon32" />
		<path
   class="st0"
   d="m 29.8,26.3 v 2.9 c 0,0.4 -0.3,0.7 -0.7,0.7 H 21.7 V 32 h 7.4 c 1.5,0 2.8,-1.2 2.8,-2.8 v -2.9 z"
   id="path34" />
	</g>
	<polygon
   points="17.1,23.5 17.1,32 19.3,32 19.3,29.8 19.3,23.5 "
   id="polygon38" />
</g></g></svg>
