<svg width="330" height="44" viewBox="0 0 330 44" fill="none" xmlns="http://www.w3.org/2000/svg">
<path d="M250.181 24.3796L245.85 28.8262V36.8505H238.476V5.16211H245.85V20.0352L260.029 5.16211H268.279L255.028 19.3197L269.104 36.9017H260.442L250.181 24.3796Z" fill="white"/>
<path d="M309.684 11.0909H299.423V5.16211H327.319L324.328 11.142H317.006V36.9017H309.581L309.684 11.0909Z" fill="white"/>
<path d="M293.442 10.9887H272.353V5.16211H296.587L293.442 10.9887Z" fill="#2DABDC"/>
<path d="M279.623 23.9197H293.442L296.587 18.042H272.353V18.6553V23.9197V30.9729V31.944V36.9017H293.442L296.587 30.9729H279.623V23.9197Z" fill="white"/>
<path d="M187.275 5.16211H179.901L165.619 36.9017H173.25L183.562 12.3176L188.616 24.4818H184.697L182.325 30.0529H190.987L193.823 36.9017H201.558L187.275 5.16211Z" fill="white"/>
<path d="M126.225 16.7642V36.9016H133.134V28.1107L126.225 16.7642Z" fill="white"/>
<path d="M162.215 5.16211H156.131L144.272 24.8396L132.309 5.16211H126.225V6.84875L133.134 18.1953L142.519 33.5284H145.87L155.306 17.7864L155.358 36.9017H162.319L162.215 5.16211Z" fill="white"/>
<path d="M226.101 26.6797C230.278 24.8908 232.701 21.4153 232.701 16.662C232.701 9.50658 227.339 5.11108 218.78 5.11108H208.003L204.858 11.091H212.283H217.078H218.367C222.905 11.091 225.173 13.1354 225.173 16.6109C225.173 20.0864 222.905 22.1308 218.367 22.1308H217.078H212.283V16.7643H204.858V22.182V27.4974V36.8506H212.283V28.0085H218.728H219.089L225.276 36.8506H233.269L226.101 26.6797Z" fill="white"/>
<path d="M77.7046 18.042H75.2812H72.6515H69.6093C67.8046 18.042 66.3093 16.5598 66.3093 14.7709C66.3093 12.982 67.8046 11.4998 69.6093 11.4998H83.8405L87.1405 5.21326H76.7249V2.35108L70.2796 0V5.21326H69.5577C64.2468 5.21326 59.9155 9.45542 59.9155 14.7709C59.9155 20.0353 64.1952 24.3285 69.5577 24.3285H72.5999H75.2296H77.653C79.4577 24.3285 80.953 25.8107 80.953 27.5996C80.953 29.3885 79.4577 30.8707 77.653 30.8707H63.2671L59.9155 37.1572H70.3312V40.0705L76.7765 42.4216V37.2595H77.7046C83.0155 37.2595 87.3468 33.0173 87.3468 27.7018C87.3468 22.3863 83.0155 18.042 77.7046 18.042Z" fill="#2DABDC"/>
<path d="M18.0468 11.6021H25.9358L29.2874 5.2644H18.0468C9.12646 5.2644 1.90771 12.4199 1.90771 21.262C1.90771 30.104 9.12646 37.2595 18.0468 37.2595H29.2874V18.2464H20.1093L16.8093 24.3286H22.8937V30.8196H18.0468C12.6843 30.8196 8.30147 26.5263 8.30147 21.2108C8.30147 15.8954 12.6843 11.6021 18.0468 11.6021Z" fill="#2DABDC"/>
<path d="M55.7904 20.8532C57.0795 19.2176 57.8014 17.1732 57.8014 14.9244C57.8014 9.60887 53.4186 5.21338 48.0045 5.21338H39.6514H35.7326H33.2061V18.2465V28.5708V37.4129H33.3607H49.1904C54.5529 37.4129 58.8326 33.1196 58.8326 27.8553C58.8842 25.0953 57.6982 22.5909 55.7904 20.8532ZM49.242 31.1263H39.7029V24.5331V18.2465V11.6022H48.1076C49.9639 11.6022 51.4592 13.1355 51.4592 14.9244C51.4592 16.7132 49.9123 18.2465 48.1076 18.2465H46.0967L42.7967 24.5331H49.242C51.0467 24.5842 52.542 26.0153 52.542 27.8042C52.542 29.6441 51.0467 31.1263 49.242 31.1263Z" fill="#2DABDC"/>
<path d="M100.083 10.0686H94.978V15.1285H100.083V10.0686Z" fill="white"/>
<path d="M105.136 17.8887H102.919V20.0864H105.136V17.8887Z" fill="#2DABDC"/>
<path d="M92.9155 5.16211C91.2655 5.16211 90.0796 6.49098 90.0796 7.97318V20.0863H100.237V17.8886H92.2452V7.97318C92.2452 7.61541 92.5546 7.35986 92.864 7.35986H102.867V15.3331H105.084V5.16211H92.9155Z" fill="#2DABDC"/>
<path d="M100.083 27.1907H94.978V32.2506H100.083V27.1907Z" fill="white"/>
<path d="M105.136 27.7019H102.919V29.8997H105.136V27.7019Z" fill="white"/>
<path d="M102.919 35.0105H92.9155C92.5545 35.0105 92.2967 34.7038 92.2967 34.3972V24.4307H105.187V22.2329H90.1311V34.3461C90.1311 35.8794 91.3686 37.1571 92.967 37.1571H105.187V31.7906H102.97V35.0105H102.919Z" fill="white"/>
<path d="M117.356 10.0686H112.251V15.1285H117.356V10.0686Z" fill="white"/>
<path d="M109.519 7.30875H119.522C119.883 7.30875 120.141 7.61541 120.141 7.92207V17.8886H112.097V20.0863H122.306V7.97318C122.306 6.43987 121.069 5.16211 119.47 5.16211H107.25V20.0863H109.467L109.519 7.30875Z" fill="white"/>
<path d="M117.356 27.1907H112.251V32.2506H117.356V27.1907Z" fill="white"/>
<path d="M117.459 22.2842V24.4308H120.14V28.8263H122.358V22.2842H117.459Z" fill="white"/>
<path d="M114.83 22.2842H109.519H107.302V24.4308V26.0152H109.519V24.4308H114.83V22.2842Z" fill="#2DABDC"/>
<path d="M120.14 31.4841V34.3463C120.14 34.7041 119.831 34.9596 119.522 34.9596H112.045V37.1574H119.522C121.069 37.1574 122.358 35.9307 122.358 34.3463V31.4841H120.14Z" fill="#2DABDC"/>
<path d="M107.302 28.7239V37.2082H109.519V35.0105V28.7239H107.302Z" fill="white"/>
</svg>
