<svg width="261" height="34" viewBox="0 0 261 34" fill="none" xmlns="http://www.w3.org/2000/svg">
<path d="M197.871 19.2384L194.445 22.7473V29.0795H188.613V4.07355H194.445V15.8102L205.66 4.07355H212.185L201.704 15.2456L212.837 29.1198H205.986L197.871 19.2384Z" fill="black"/>
<path d="M244.932 8.75208H236.817V4.07355H258.879L256.514 8.79241H250.723V29.1198H244.851L244.932 8.75208Z" fill="black"/>
<path d="M232.086 8.67141H215.407V4.07355H234.574L232.086 8.67141Z" fill="#2DABDC"/>
<path d="M221.157 18.8754H232.086L234.574 14.2372H215.407V14.7212V18.8754V24.4413V25.2076V29.1198H232.086L234.574 24.4413H221.157V18.8754Z" fill="black"/>
<path d="M148.118 4.07355H142.286L130.989 29.1198H137.025L145.181 9.72005L149.178 19.3191H146.078L144.203 23.7153H151.054L153.297 29.1198H159.414L148.118 4.07355Z" fill="black"/>
<path d="M99.8325 13.2289V29.1198H105.297V22.1827L99.8325 13.2289Z" fill="black"/>
<path d="M128.298 4.07355H123.486L114.106 19.6014L104.645 4.07355H99.8325V5.40451L105.297 14.3582L112.719 26.4579H115.37L122.833 14.0356L122.874 29.1198H128.379L128.298 4.07355Z" fill="black"/>
<path d="M178.826 21.0534C182.129 19.6417 184.046 16.8992 184.046 13.1483C184.046 7.50177 179.805 4.0332 173.035 4.0332H164.512L162.024 8.75206H167.896H171.689H172.709C176.297 8.75206 178.092 10.3654 178.092 13.1079C178.092 15.8505 176.297 17.4638 172.709 17.4638H171.689H167.896V13.2289H162.024V17.5041V21.6987V29.0795H167.896V22.102H172.994H173.28L178.173 29.0795H184.494L178.826 21.0534Z" fill="black"/>
<path d="M61.4573 14.2372H59.5406H57.4608H55.0547C53.6273 14.2372 52.4447 13.0676 52.4447 11.656C52.4447 10.2444 53.6273 9.07473 55.0547 9.07473H66.3103L68.9203 4.11388H60.6825V1.85528L55.5849 0V4.11388H55.0139C50.8134 4.11388 47.3878 7.46145 47.3878 11.656C47.3878 15.8102 50.7727 19.1981 55.0139 19.1981H57.42H59.4998H61.4166C62.8439 19.1981 64.0266 20.3677 64.0266 21.7794C64.0266 23.191 62.8439 24.3606 61.4166 24.3606H50.0386L47.3878 29.3215H55.6256V31.6204L60.7233 33.4757V29.4021H61.4573C65.6578 29.4021 69.0834 26.0546 69.0834 21.86C69.0834 17.6655 65.6578 14.2372 61.4573 14.2372Z" fill="#2DABDC"/>
<path d="M14.2734 9.15542H20.513L23.1638 4.15424H14.2734C7.21829 4.15424 1.50891 9.80074 1.50891 16.7782C1.50891 23.7557 7.21829 29.4022 14.2734 29.4022H23.1638V14.3986H15.9047L13.2947 19.1981H18.1069V24.3203H14.2734C10.0322 24.3203 6.56579 20.9324 6.56579 16.7379C6.56579 12.5433 10.0322 9.15542 14.2734 9.15542Z" fill="#2DABDC"/>
<path d="M44.1254 16.4555C45.1449 15.1649 45.7158 13.5516 45.7158 11.777C45.7158 7.58246 42.2494 4.11389 37.9674 4.11389H31.3608H28.2615H26.2632V14.3986V22.5457V29.5231H26.3855H38.9054C43.1466 29.5231 46.5315 26.1352 46.5315 21.981C46.5722 19.8031 45.6343 17.8268 44.1254 16.4555ZM38.9462 24.5623H31.4016V19.3594V14.3986V9.15541H38.049C39.5171 9.15541 40.6997 10.3654 40.6997 11.777C40.6997 13.1886 39.4763 14.3986 38.049 14.3986H36.4585L33.8485 19.3594H38.9462C40.3735 19.3998 41.5562 20.5291 41.5562 21.9407C41.5562 23.3927 40.3735 24.5623 38.9462 24.5623Z" fill="#2DABDC"/>
<path d="M79.1565 7.94543H75.1191V11.9383H79.1565V7.94543Z" fill="black"/>
<path d="M83.153 14.1163H81.3994V15.8506H83.153V14.1163Z" fill="#2DABDC"/>
<path d="M73.4878 4.07355C72.1828 4.07355 71.2449 5.12218 71.2449 6.29182V15.8505H79.2788V14.1163H72.9577V6.29182C72.9577 6.00949 73.2024 5.80783 73.4471 5.80783H81.3586V12.0996H83.1122V4.07355H73.4878Z" fill="#2DABDC"/>
<path d="M79.1565 21.4567H75.1191V25.4496H79.1565V21.4567Z" fill="black"/>
<path d="M83.153 21.86H81.3994V23.5943H83.153V21.86Z" fill="black"/>
<path d="M81.3994 27.6275H73.4878C73.2024 27.6275 72.9985 27.3855 72.9985 27.1435V19.2788H83.1938V17.5445H71.2856V27.1032C71.2856 28.3132 72.2644 29.3215 73.5286 29.3215H83.1938V25.0866H81.4402V27.6275H81.3994Z" fill="black"/>
<path d="M92.8181 7.94543H88.7808V11.9383H92.8181V7.94543Z" fill="black"/>
<path d="M86.6194 5.7675H94.531C94.8165 5.7675 95.0204 6.00949 95.0204 6.25148V14.1163H88.6585V15.8505H96.7332V6.29182C96.7332 5.08185 95.7544 4.07355 94.4902 4.07355H84.8251V15.8505H86.5787L86.6194 5.7675Z" fill="black"/>
<path d="M92.8181 21.4567H88.7808V25.4496H92.8181V21.4567Z" fill="black"/>
<path d="M92.8997 17.5848V19.2788H95.0203V22.7474H96.7739V17.5848H92.8997Z" fill="black"/>
<path d="M90.8199 17.5848H86.6194H84.8658V19.2788V20.5291H86.6194V19.2788H90.8199V17.5848Z" fill="#2DABDC"/>
<path d="M95.0203 24.8446V27.1032C95.0203 27.3855 94.7756 27.5872 94.531 27.5872H88.6177V29.3215H94.531C95.7544 29.3215 96.7739 28.3535 96.7739 27.1032V24.8446H95.0203Z" fill="#2DABDC"/>
<path d="M84.8658 22.6667V29.3618H86.6194V27.6275V22.6667H84.8658Z" fill="black"/>
</svg>
