<svg width="55" height="58" viewBox="0 0 55 58" fill="none" xmlns="http://www.w3.org/2000/svg">
<g clip-path="url(#clip0_419_802)">
<path d="M13.4768 47.4097C8.36573 47.4097 4.22986 51.5456 4.22986 56.6567H22.7238C22.7238 51.5573 18.5879 47.4097 13.4768 47.4097Z" fill="#D9F6FF"/>
<path d="M45.7531 47.4097C50.8641 47.4097 55 51.5456 55 56.6567H36.5061C36.5061 51.5573 40.642 47.4097 45.7531 47.4097Z" fill="#D9F6FF"/>
<path d="M10.187 46.0585C6.20383 46.0585 2.96094 42.8156 2.96094 38.8325C2.96094 34.8494 6.20383 31.6065 10.187 31.6065C14.1701 31.6065 17.413 34.8494 17.413 38.8325C17.413 42.8274 14.1701 46.0585 10.187 46.0585ZM10.187 33.4982C7.2378 33.4982 4.84088 35.8951 4.84088 38.8443C4.84088 41.7934 7.2378 44.1904 10.187 44.1904C13.1361 44.1904 15.533 41.7934 15.533 38.8443C15.533 35.8951 13.1361 33.4982 10.187 33.4982Z" fill="#172069"/>
<path d="M19.4339 57.5967H0.93997C0.422987 57.5967 0 57.1737 0 56.6567C0 51.0404 4.5706 46.4698 10.1869 46.4698C15.8032 46.4698 20.3738 51.0404 20.3738 56.6567C20.3738 57.1854 19.9509 57.5967 19.4339 57.5967ZM1.92694 55.7167H18.4469C17.9769 51.5809 14.452 48.3497 10.1869 48.3497C5.92181 48.3497 2.39692 51.5809 1.92694 55.7167Z" fill="#172069"/>
<path d="M15.2275 29.4446C15.1217 29.4446 15.0277 29.4328 14.9337 29.3976C14.546 29.2683 14.2875 28.9041 14.2993 28.5046L14.3345 23.3935L11.8436 23.3818C6.92049 23.3465 2.94911 19.3281 2.98436 14.405L3.01961 8.87097C3.03136 6.48579 3.97133 4.25336 5.67503 2.58492C7.33173 0.916471 9.56415 0 11.9258 0C11.9493 0 11.9611 0 11.9846 0L19.8921 0.0469985C22.7472 0.0704978 25.4379 1.4687 27.0946 3.78338C27.4001 4.20637 27.2943 4.79385 26.8714 5.09934C26.4484 5.40483 25.8609 5.29908 25.5554 4.87609C24.2394 3.04315 22.1128 1.93869 19.8686 1.92694L11.9728 1.87994C11.9611 1.87994 11.9376 1.87994 11.9258 1.87994C10.0576 1.87994 8.30694 2.59667 6.97924 3.91263C5.63978 5.22858 4.8878 6.99103 4.87605 8.87097L4.8408 14.405C4.81731 18.2824 7.95446 21.4666 11.8318 21.4901L15.2627 21.5136C15.5095 21.5136 15.7562 21.6193 15.9207 21.7956C16.0969 21.9718 16.1909 22.2185 16.1909 22.4653L16.1674 25.6612L18.9639 21.9248C19.1401 21.6898 19.4221 21.5488 19.7158 21.5488C19.7393 21.5488 19.7511 21.5488 19.7628 21.5488C21.5018 21.5488 23.1702 20.9143 24.4627 19.7511C24.8387 19.4104 25.1794 19.0344 25.4731 18.6232C25.7786 18.2002 26.3661 18.1062 26.7891 18.4117C27.2121 18.7172 27.3061 19.3046 27.0006 19.7276C26.6246 20.2446 26.1899 20.7263 25.7199 21.1611C24.1807 22.5358 22.242 23.3348 20.1858 23.4288L15.956 29.0803C15.8032 29.3036 15.5212 29.4446 15.2275 29.4446Z" fill="#172069"/>
<path d="M42.4632 46.0585C38.4801 46.0585 35.2372 42.8156 35.2372 38.8325C35.2372 34.8494 38.4801 31.6065 42.4632 31.6065C46.4463 31.6065 49.6892 34.8494 49.6892 38.8325C49.6775 42.8274 46.4463 46.0585 42.4632 46.0585ZM42.4632 33.4982C39.514 33.4982 37.1171 35.8951 37.1171 38.8443C37.1171 41.7934 39.514 44.1904 42.4632 44.1904C45.4124 44.1904 47.8093 41.7934 47.8093 38.8443C47.7975 35.8951 45.4124 33.4982 42.4632 33.4982Z" fill="#172069"/>
<path d="M51.7101 57.5967H33.2162C32.6992 57.5967 32.2762 57.1737 32.2762 56.6567C32.2762 51.0404 36.8468 46.4698 42.4632 46.4698C48.0795 46.4698 52.6501 51.0404 52.6501 56.6567C52.6501 57.1854 52.2271 57.5967 51.7101 57.5967ZM34.2032 55.7167H50.7114C50.2414 51.5809 46.7165 48.3497 42.4514 48.3497C38.1863 48.3497 34.6732 51.5809 34.2032 55.7167Z" fill="#172069"/>
<path d="M26.3544 20.0684C26.0606 20.0684 25.7669 19.9274 25.5907 19.6689C24.5214 18.1649 23.9575 16.4025 23.9457 14.5578L23.9105 9.02371C23.8987 7.13202 24.4744 5.32257 25.5672 3.78337C25.8726 3.36039 26.4601 3.26639 26.8831 3.56013C27.3061 3.86562 27.4001 4.4531 27.1064 4.87609C26.2369 6.0863 25.7904 7.51975 25.8021 9.01196L25.8374 14.546C25.8491 16.003 26.2956 17.4012 27.1416 18.5762C27.4471 18.9991 27.3413 19.5866 26.9184 19.8921C26.7304 20.0096 26.5424 20.0684 26.3544 20.0684Z" fill="#172069"/>
<path d="M37.4107 29.4446C37.117 29.4446 36.835 29.3153 36.6588 29.0686L32.4289 23.417C29.703 23.2878 27.1768 21.9131 25.5906 19.6806C25.2851 19.2576 25.3909 18.6702 25.8139 18.3647C26.2368 18.0592 26.8243 18.1649 27.1298 18.5879C28.4575 20.4443 30.596 21.5488 32.8636 21.5488C32.8754 21.5488 32.8989 21.5488 32.9106 21.5488C33.2044 21.5488 33.4864 21.6898 33.6626 21.9248L36.459 25.6612L36.4355 22.4653C36.4355 22.2185 36.5295 21.9718 36.7058 21.7956C36.882 21.6193 37.117 21.5136 37.3637 21.5136L40.7946 21.4901C44.672 21.4666 47.8209 18.2824 47.7857 14.405L47.7504 8.87097C47.7387 6.99103 46.9984 5.22858 45.659 3.90088C44.3313 2.58492 42.5571 1.87994 40.6771 1.87994L32.7814 1.92694C30.5255 1.93869 28.3988 3.04315 27.0946 4.87609C26.7891 5.29908 26.2016 5.39308 25.7786 5.09934C25.3556 4.79385 25.2616 4.20637 25.5554 3.78338C27.2121 1.45695 29.9145 0.0587481 32.7579 0.0469985L40.6654 0C43.0506 0 45.2947 0.892972 46.9867 2.57317C48.6786 4.24161 49.6304 6.48579 49.6421 8.85922L49.6773 14.3933C49.7126 19.3164 45.7295 23.3348 40.8181 23.37L38.3272 23.3818L38.3625 28.4928C38.3625 28.9041 38.104 29.2566 37.728 29.3858C37.6222 29.4328 37.5165 29.4446 37.4107 29.4446Z" fill="#172069"/>
<path d="M17.0605 16.8372H14.7223C14.2053 16.8372 13.7823 16.4142 13.7823 15.8972C13.7823 15.3803 14.2053 14.9573 14.7223 14.9573H17.0605C17.5657 14.9573 17.9769 14.546 17.9769 14.0408C17.9769 13.5356 17.5657 13.1243 17.0605 13.1243H16.1675C14.6283 13.1243 13.3711 11.8671 13.3711 10.3279V10.1634C13.3711 8.62421 14.6283 7.367 16.1675 7.367H18.5057C19.0227 7.367 19.4457 7.78999 19.4457 8.30697C19.4457 8.82396 19.0227 9.24694 18.5057 9.24694H16.1675C15.6623 9.24694 15.251 9.65818 15.251 10.1634V10.3279C15.251 10.8331 15.6623 11.2444 16.1675 11.2444H17.0605C18.5997 11.2444 19.8569 12.5016 19.8569 14.0408C19.8569 15.58 18.5997 16.8372 17.0605 16.8372Z" fill="#172069"/>
<path d="M16.614 9.23522C16.0971 9.23522 15.6741 8.81223 15.6741 8.29525V6.50931C15.6741 5.99232 16.0971 5.56934 16.614 5.56934C17.131 5.56934 17.554 5.99232 17.554 6.50931V8.2835C17.554 8.81223 17.131 9.23522 16.614 9.23522Z" fill="#172069"/>
<path d="M16.614 18.6232C16.0971 18.6232 15.6741 18.2002 15.6741 17.6832V15.909C15.6741 15.392 16.0971 14.9691 16.614 14.9691C17.131 14.9691 17.554 15.392 17.554 15.909V17.6832C17.554 18.2002 17.131 18.6232 16.614 18.6232Z" fill="#172069"/>
<path d="M35.2137 17.7302H35.2019C34.8729 17.7184 34.5674 17.5422 34.4029 17.2602L32.523 14.0408C32.2645 13.5943 32.4173 13.0186 32.8637 12.7601C33.3102 12.5016 33.886 12.6544 34.1444 13.1008L35.2489 14.9925L39.8195 7.79001C40.1015 7.35527 40.6772 7.22603 41.112 7.49627C41.5467 7.77826 41.676 8.35399 41.4057 8.78873L36.0126 17.2837C35.8364 17.5657 35.5427 17.7302 35.2137 17.7302Z" fill="#172069"/>
</g>
<defs>
<clipPath id="clip0_419_802">
<rect width="55" height="57.5967" fill="white"/>
</clipPath>
</defs>
</svg>
