<svg width="54" height="55" viewBox="0 0 54 55" fill="none" xmlns="http://www.w3.org/2000/svg">
<g clip-path="url(#clip0_419_908)">
<path d="M42.1887 41.3031L42.3186 42.1415L38.3276 42.7791L38.304 42.5902L35.7063 28.5981L21.1948 31.243L21.1593 31.0541L19.5181 22.0212L28.8697 20.3209V20.3682L29.4719 23.6271L37.5247 22.1629L36.9698 18.9749L36.9461 18.845L45.3768 17.31L47.88 31.0541L47.9627 31.4792L40.6301 32.8134L42.1887 41.3031Z" fill="#D9F6FF"/>
<path d="M21.1002 53.9609C17.8059 54.3388 14.8303 51.9654 14.4643 48.6711C14.1691 46.0734 15.586 43.6647 17.8177 42.5902C18.4081 42.3068 19.0693 42.106 19.7541 42.0352C22.1629 41.7636 24.3827 42.9562 25.5635 44.8927C26.0004 45.6129 26.2838 46.4276 26.39 47.325C26.7679 50.6194 24.3945 53.5949 21.1002 53.9609Z" fill="#D9F6FF"/>
<path d="M23.2846 45.7783C22.8241 45.7783 22.4227 45.4476 22.3518 44.9871C22.2692 44.4676 22.6234 43.9835 23.1311 43.9008L51.9064 39.3195C52.4259 39.2368 52.91 39.5911 52.9927 40.0988C53.0753 40.6183 52.7211 41.1024 52.2134 41.1851L23.4381 45.7664C23.3791 45.7783 23.3319 45.7783 23.2846 45.7783Z" fill="#172069"/>
<path d="M15.1374 43.2868C14.6887 43.2868 14.2873 42.9562 14.2046 42.4957L7.32074 2.0073L0.920999 1.88922C0.401463 1.87742 -0.0118049 1.45234 2.71286e-06 0.920996C0.0118104 0.40146 0.436885 0.0118076 0.968229 0L8.14728 0.141692C8.59597 0.153499 8.98562 0.484113 9.05647 0.932804L16.0702 42.1887C16.1529 42.7082 15.8104 43.1924 15.3027 43.275C15.2437 43.2868 15.1846 43.2868 15.1374 43.2868Z" fill="#172069"/>
<path d="M35.8244 43.5938C35.3757 43.5938 34.986 43.275 34.8916 42.8263L32.471 29.7553L14.547 33.0142L16.2709 42.4721C16.3654 42.9798 16.0229 43.4758 15.5152 43.5702C15.0075 43.6647 14.5116 43.3223 14.4171 42.8145L12.5279 32.4238C12.4334 31.9161 12.7758 31.4201 13.2836 31.3257L33.0614 27.7244C33.5691 27.6299 34.065 27.9723 34.1595 28.48L36.7572 42.4721C36.8516 42.9798 36.5092 43.4758 36.0015 43.5702C35.9306 43.5938 35.8716 43.5938 35.8244 43.5938Z" fill="#172069"/>
<path d="M20.9586 35.5056C20.5099 35.5056 20.1084 35.1868 20.0258 34.7263L19.4118 31.3611C19.3645 31.1131 19.4236 30.8534 19.5653 30.6526C19.707 30.4401 19.9313 30.3102 20.1793 30.263L25.4337 29.401C25.9414 29.3184 26.4255 29.6608 26.52 30.1685L27.0985 33.4511C27.193 33.9588 26.8506 34.4547 26.3429 34.5492L21.1239 35.5056C21.0766 35.4938 21.0176 35.5056 20.9586 35.5056ZM21.4545 31.9751L21.7261 33.4629L25.0912 32.8489L24.8315 31.4201L21.4545 31.9751Z" fill="#172069"/>
<path d="M41.9644 35.907C41.7755 35.907 41.5866 35.848 41.4213 35.7417C41.2206 35.6 41.0789 35.3757 41.0316 35.1395L40.7601 33.6754C40.6656 33.1677 41.008 32.6717 41.5158 32.5773C42.0235 32.4828 42.5194 32.8252 42.6139 33.333L42.7083 33.8761L43.9009 33.6636L43.8064 33.1558C43.712 32.6363 44.0544 32.1522 44.5739 32.0577C45.0935 31.9751 45.5776 32.3057 45.672 32.8252L45.9318 34.2422C46.0263 34.7499 45.6839 35.2458 45.1761 35.3403L42.1416 35.8952C42.0825 35.8952 42.0235 35.907 41.9644 35.907Z" fill="#172069"/>
<path d="M26.9922 24.6308C26.8033 24.6308 26.6144 24.5717 26.4491 24.4655C26.2484 24.3238 26.1067 24.0994 26.0594 23.8633L25.469 20.5926C25.3746 20.0848 25.717 19.5889 26.2247 19.4944C26.7325 19.4 27.2284 19.7424 27.3228 20.2501L27.7479 22.588L33.9587 21.4545L33.5573 19.1874C33.4628 18.6679 33.8052 18.1838 34.3248 18.0893C34.8325 17.9949 35.3284 18.3373 35.4229 18.8568L35.9779 22.0449C36.0723 22.5526 35.7299 23.0485 35.2222 23.143L27.1575 24.619C27.0985 24.6308 27.0395 24.6308 26.9922 24.6308Z" fill="#172069"/>
<path d="M39.6973 42.3068C39.2486 42.3068 38.8471 41.988 38.7645 41.5275L37.2177 33.0378C37.1704 32.7898 37.2295 32.5419 37.3712 32.3293C37.5129 32.1286 37.7372 31.9869 37.9734 31.9397L47.6438 30.1804C48.1515 30.0859 48.6475 30.4283 48.7419 30.936L50.3832 39.839C50.4777 40.3467 50.1352 40.8427 49.6275 40.9371C49.108 41.0316 48.6239 40.6892 48.5294 40.1814L47.0652 32.1995L39.2486 33.6282L40.6301 41.1851C40.7245 41.6928 40.3821 42.1887 39.8744 42.2832C39.8154 42.3068 39.7563 42.3068 39.6973 42.3068Z" fill="#172069"/>
<path d="M44.9989 29.8733C44.5502 29.8733 44.1488 29.5545 44.0661 29.094L42.1297 18.4671L18.1247 22.836L19.152 28.48C19.2464 28.9877 18.904 29.4837 18.3963 29.5781C17.8886 29.6726 17.3926 29.3302 17.2982 28.8224L16.1056 22.2456C16.0584 21.9976 16.1174 21.7497 16.2591 21.5371C16.4008 21.3364 16.6251 21.1947 16.8613 21.1475L42.7318 16.4362C43.2396 16.3418 43.7355 16.6842 43.83 17.1919L45.9317 28.7516C46.0262 29.2593 45.6838 29.7552 45.176 29.8497C45.117 29.8615 45.058 29.8733 44.9989 29.8733Z" fill="#172069"/>
<path d="M17.9357 55C16.3653 55 14.8539 54.4686 13.6141 53.4886C12.1618 52.3315 11.2526 50.6784 11.04 48.8364C10.8275 46.9944 11.3588 45.176 12.516 43.7237C13.6731 42.2713 15.3262 41.3622 17.1682 41.1496C20.9821 40.7245 24.4181 43.4639 24.8432 47.2778C25.2682 51.0798 22.5171 54.5277 18.715 54.9528C18.4552 54.9882 18.1955 55 17.9357 55ZM17.9593 42.9916C17.7704 42.9916 17.5815 43.0034 17.3807 43.027C16.0347 43.1805 14.8303 43.8418 13.9919 44.9044C13.1536 45.9553 12.764 47.2778 12.9175 48.6239C13.0709 49.9699 13.7322 51.1743 14.7831 52.0127C15.8339 52.851 17.1564 53.2406 18.5025 53.0871C21.2773 52.7801 23.2728 50.2651 22.9658 47.5021C22.8123 46.1561 22.151 44.9517 21.1001 44.1133C20.2028 43.3813 19.0928 42.9916 17.9593 42.9916Z" fill="#172069"/>
</g>
<defs>
<clipPath id="clip0_419_908">
<rect width="53.0045" height="55" fill="white"/>
</clipPath>
</defs>
</svg>
