<svg width="55" height="61" viewBox="0 0 55 61" fill="none" xmlns="http://www.w3.org/2000/svg">
<g clip-path="url(#clip0_419_750)">
<path d="M12.7091 9.83176L7.14258 18.5068H9.81739V32.3725H15.0514V18.5068H17.7262L12.7091 9.83176Z" fill="#D9F6FF"/>
<path d="M46.0357 9.83176L40.4692 18.5068H43.1441V32.3725H48.378V18.5068H51.0528L46.0357 9.83176Z" fill="#D9F6FF"/>
<path d="M4.52539 32.3725V59.2074H54.9999V32.3725H4.52539ZM51.0527 52.5565C49.5635 52.5565 48.349 53.771 48.349 55.2747H11.1907C11.1907 53.771 9.97623 52.5565 8.47255 52.5565V39.0379C9.97623 39.0379 11.1907 37.8233 11.1907 36.3341H48.349C48.349 37.8233 49.5635 39.0379 51.0527 39.0379V52.5565Z" fill="#D9F6FF"/>
<path d="M36.204 45.79C36.204 49.3468 33.3268 52.2384 29.7556 52.2384C26.1988 52.2384 23.3215 49.3468 23.3215 45.79C23.3215 42.2332 26.1988 39.3415 29.7556 39.3415C33.3268 39.3415 36.204 42.2332 36.204 45.79Z" fill="#D9F6FF"/>
<path d="M51.6312 60.3641H1.15668C0.520505 60.3641 0 59.8436 0 59.2074V32.3725C0 31.7363 0.520505 31.2158 1.15668 31.2158H51.6312C52.2674 31.2158 52.7879 31.7363 52.7879 32.3725V59.2074C52.7879 59.858 52.2674 60.3641 51.6312 60.3641ZM2.31335 58.0507H50.4745V33.5292H2.31335V58.0507Z" fill="#172069"/>
<path d="M44.9657 56.4169H7.80749C7.17131 56.4169 6.65081 55.8964 6.65081 55.2603C6.65081 54.4072 5.9568 53.7132 5.08929 53.7132C4.45312 53.7132 3.93262 53.1927 3.93262 52.5565V39.0379C3.93262 38.4017 4.45312 37.8812 5.08929 37.8812C5.94234 37.8812 6.65081 37.1872 6.65081 36.3341C6.65081 35.6979 7.17131 35.1774 7.80749 35.1774H44.9657C45.6019 35.1774 46.1224 35.6979 46.1224 36.3341C46.1224 37.1872 46.8164 37.8812 47.6695 37.8812C48.3056 37.8812 48.8262 38.4017 48.8262 39.0379V52.5565C48.8262 53.1927 48.3056 53.7132 47.6695 53.7132C46.8164 53.7132 46.1224 54.4072 46.1224 55.2603C46.1224 55.9109 45.6164 56.4169 44.9657 56.4169ZM8.79066 54.1036H43.9826C44.3585 52.9035 45.3127 51.9493 46.5128 51.5733V40.0066C45.3127 39.6307 44.3585 38.6764 43.9826 37.4763H8.79066C8.41474 38.6764 7.46048 39.6307 6.26043 40.0066V51.5733C7.46048 51.9493 8.41474 52.9035 8.79066 54.1036Z" fill="#172069"/>
<path d="M26.4011 53.3951C22.2081 53.3951 18.7959 49.9829 18.7959 45.79C18.7959 41.597 22.2081 38.1848 26.4011 38.1848C30.594 38.1848 34.0062 41.597 34.0062 45.79C33.9917 49.9829 30.5795 53.3951 26.4011 53.3951ZM26.4011 40.5126C23.4804 40.5126 21.1093 42.8838 21.1093 45.8044C21.1093 48.725 23.4804 51.0962 26.4011 51.0962C29.3217 51.0962 31.6928 48.725 31.6928 45.8044C31.6784 42.8838 29.3072 40.5126 26.4011 40.5126Z" fill="#172069"/>
<path d="M12.3475 33.5292H7.11351C6.47734 33.5292 5.95684 33.0087 5.95684 32.3725V19.6635H4.4387C4.0194 19.6635 3.62902 19.4322 3.42661 19.0563C3.22419 18.6803 3.23864 18.2321 3.46998 17.8707L9.05095 9.19559C9.26782 8.86305 9.64374 8.66063 10.0486 8.66063C10.4534 8.67509 10.8149 8.89196 11.0173 9.23897L16.0344 17.914C16.2368 18.2755 16.2368 18.7093 16.0344 19.0707C15.832 19.4322 15.4416 19.6491 15.0368 19.6491H13.5042V32.3581C13.5042 33.0087 12.9837 33.5292 12.3475 33.5292ZM8.27019 31.2158H11.1908V18.5068C11.1908 17.8707 11.7113 17.3502 12.3475 17.3502H13.0126L9.96183 12.0584L6.56409 17.3502H7.11351C7.74969 17.3502 8.27019 17.8707 8.27019 18.5068V31.2158Z" fill="#172069"/>
<path d="M45.6744 33.5292H40.4404C39.8042 33.5292 39.2837 33.0087 39.2837 32.3725V19.6635H37.7656C37.3463 19.6635 36.9559 19.4322 36.7535 19.0563C36.5511 18.6803 36.5655 18.2321 36.7969 17.8707L42.3779 9.19559C42.5947 8.86305 42.9706 8.66063 43.3755 8.66063C43.7803 8.67509 44.1418 8.89196 44.3442 9.23897L49.3613 17.914C49.5637 18.2755 49.5637 18.7093 49.3613 19.0707C49.1589 19.4322 48.7685 19.6491 48.3637 19.6491H46.8455V32.3581C46.8311 33.0087 46.3106 33.5292 45.6744 33.5292ZM41.5971 31.2158H44.5177V18.5068C44.5177 17.8707 45.0382 17.3502 45.6744 17.3502H46.3395L43.2743 12.0584L39.8765 17.3502H40.426C41.0621 17.3502 41.5826 17.8707 41.5826 18.5068V31.2158H41.5971Z" fill="#172069"/>
<path d="M29.0181 33.5292H23.7842C23.148 33.5292 22.6275 33.0087 22.6275 32.3725V10.9884H21.1094C20.6901 10.9884 20.2997 10.7571 20.0973 10.3812C19.8948 10.0053 19.9093 9.55705 20.1406 9.19559L25.7216 0.520508C25.9385 0.187963 26.2999 -0.0289139 26.7192 -0.0144554C27.1241 3.05939e-06 27.4855 0.21688 27.688 0.563883L32.6906 9.23896C32.893 9.60042 32.893 10.0342 32.6906 10.3956C32.4882 10.7571 32.0978 10.974 31.6929 10.974H30.1748V32.358C30.1748 33.0087 29.6543 33.5292 29.0181 33.5292ZM24.9264 31.2158H27.847V9.83176C27.847 9.19559 28.3675 8.67508 29.0037 8.67508H29.6688L26.6036 3.38328L23.2203 8.67508H23.7697C24.4059 8.67508 24.9264 9.19559 24.9264 9.83176V31.2158Z" fill="#172069"/>
</g>
<defs>
<clipPath id="clip0_419_750">
<rect width="55" height="60.3641" fill="white"/>
</clipPath>
</defs>
</svg>
