<svg width="45" height="46" viewBox="0 0 45 46" fill="none" xmlns="http://www.w3.org/2000/svg">
<g clip-path="url(#clip0_419_713)">
<path d="M20.541 45.5163C22.3917 45.5163 23.892 44.016 23.892 42.1653C23.892 40.3147 22.3917 38.8144 20.541 38.8144C18.6903 38.8144 17.1901 40.3147 17.1901 42.1653C17.1901 44.016 18.6903 45.5163 20.541 45.5163Z" fill="#D9F6FF"/>
<path d="M37.4476 45.5163C39.2983 45.5163 40.7986 44.016 40.7986 42.1653C40.7986 40.3147 39.2983 38.8144 37.4476 38.8144C35.597 38.8144 34.0967 40.3147 34.0967 42.1653C34.0967 44.016 35.597 45.5163 37.4476 45.5163Z" fill="#D9F6FF"/>
<path d="M41.6895 1.1946V8.07873H35.4533V11.865H32.0315V5.66929H19.6805V1.1946H41.6895Z" fill="#D9F6FF"/>
<path d="M40.0393 35.8988H12.766C12.3813 35.8988 12.0472 35.6254 11.9763 35.2508L11.3993 32.3352C11.3082 31.8999 11.6018 31.4747 12.0371 31.3836C12.4724 31.2925 12.8976 31.586 12.9887 32.0214L13.4342 34.2891H39.3712L43.1979 15.0439H9.60738L10.0629 17.3419C10.1541 17.7773 9.86047 18.2025 9.42515 18.2936C8.97971 18.3847 8.56464 18.0911 8.47352 17.6558L7.8256 14.3757C7.77499 14.1428 7.83573 13.8898 7.99771 13.7075C8.14956 13.5152 8.38241 13.4139 8.62538 13.4139H44.1901C44.433 13.4139 44.6659 13.5253 44.8177 13.7075C44.9696 13.8999 45.0303 14.1428 44.9898 14.3757L40.8391 35.2407C40.7581 35.6254 40.424 35.8988 40.0393 35.8988Z" fill="#172069"/>
<path d="M11.612 30.027C11.2374 30.027 10.8932 29.7638 10.8223 29.3791L10.2655 26.5849C10.1744 26.1496 10.468 25.7244 10.9033 25.6333C11.3386 25.5422 11.7638 25.8358 11.8549 26.2711L12.4117 29.0652C12.5029 29.5006 12.2093 29.9258 11.774 30.0169C11.7132 30.027 11.6626 30.027 11.612 30.027Z" fill="#172069"/>
<path d="M10.4578 24.1654C10.0833 24.1654 9.73905 23.9021 9.66818 23.5174L9.10125 20.6929C9.01014 20.2576 9.2936 19.8223 9.73905 19.7413C10.1744 19.6502 10.6097 19.9336 10.6907 20.3791L11.2576 23.2036C11.3487 23.6389 11.0653 24.0742 10.6198 24.1552C10.5591 24.1552 10.5085 24.1654 10.4578 24.1654Z" fill="#172069"/>
<path d="M8.6153 15.0236C8.24072 15.0236 7.89651 14.7604 7.82565 14.3757L6.15523 5.95276H0.809899C0.364454 5.95276 0 5.58831 0 5.14286C0 4.69742 0.364454 4.33296 0.809899 4.33296H6.8234C7.2081 4.33296 7.54218 4.6063 7.61305 4.98088L9.41507 14.0619C9.50619 14.4972 9.2126 14.9224 8.77728 15.0135C8.72666 15.0236 8.66592 15.0236 8.6153 15.0236Z" fill="#172069"/>
<path d="M17.9494 45.9415C15.6615 45.9415 13.7886 44.0787 13.7886 41.7807C13.7886 39.4927 15.6513 37.6198 17.9494 37.6198C20.2475 37.6198 22.1103 39.4826 22.1103 41.7807C22.1103 44.0787 20.2374 45.9415 17.9494 45.9415ZM17.9494 39.2497C16.5524 39.2497 15.4084 40.3836 15.4084 41.7908C15.4084 43.198 16.5422 44.3318 17.9494 44.3318C19.3465 44.3318 20.4905 43.198 20.4905 41.7908C20.4905 40.3836 19.3465 39.2497 17.9494 39.2497Z" fill="#172069"/>
<path d="M34.856 45.9415C32.5681 45.9415 30.6952 44.0787 30.6952 41.7807C30.6952 39.4927 32.558 37.6198 34.856 37.6198C37.144 37.6198 39.0169 39.4826 39.0169 41.7807C39.0169 44.0787 37.1541 45.9415 34.856 45.9415ZM34.856 39.2497C33.459 39.2497 32.315 40.3836 32.315 41.7908C32.315 43.198 33.4488 44.3318 34.856 44.3318C36.2632 44.3318 37.3971 43.198 37.3971 41.7908C37.3971 40.3836 36.2531 39.2497 34.856 39.2497Z" fill="#172069"/>
<path d="M29.4399 12.2902C28.9944 12.2902 28.63 11.9258 28.63 11.4803V6.10462H13.4241V11.4904C13.4241 11.9359 13.0597 12.3003 12.6142 12.3003C12.1688 12.3003 11.8043 11.9359 11.8043 11.4904V5.29472C11.8043 4.84927 12.1688 4.48482 12.6142 4.48482H29.45C29.8954 4.48482 30.2599 4.84927 30.2599 5.29472V11.4904C30.2498 11.9359 29.8954 12.2902 29.4399 12.2902Z" fill="#172069"/>
<path d="M41.0923 12.2902C40.6468 12.2902 40.2824 11.9258 40.2824 11.4803V8.50394H33.6716V11.4803C33.6716 11.9258 33.3071 12.2902 32.8617 12.2902C32.4162 12.2902 32.0518 11.9258 32.0518 11.4803V7.69404C32.0518 7.24859 32.4162 6.88414 32.8617 6.88414H41.0923C41.5377 6.88414 41.9022 7.24859 41.9022 7.69404V11.4803C41.9022 11.9359 41.5478 12.2902 41.0923 12.2902Z" fill="#172069"/>
<path d="M39.108 8.50394C38.6625 8.50394 38.2981 8.13948 38.2981 7.69404V1.6198H17.8987V5.29471C17.8987 5.74016 17.5343 6.10461 17.0888 6.10461C16.6434 6.10461 16.2789 5.74016 16.2789 5.29471V0.809899C16.2789 0.364454 16.6434 0 17.0888 0H39.0978C39.5433 0 39.9077 0.364454 39.9077 0.809899V7.69404C39.9179 8.14961 39.5534 8.50394 39.108 8.50394Z" fill="#172069"/>
<path d="M9.14171 18.2936H3.38131C2.93587 18.2936 2.57141 17.9291 2.57141 17.4837C2.57141 17.0383 2.93587 16.6738 3.38131 16.6738H9.14171C9.58716 16.6738 9.95161 17.0383 9.95161 17.4837C9.95161 17.9291 9.58716 18.2936 9.14171 18.2936Z" fill="#172069"/>
<path d="M10.4578 24.1654H0.809899C0.364454 24.1654 0 23.8009 0 23.3555C0 22.91 0.364454 22.5456 0.809899 22.5456H10.4578C10.9033 22.5456 11.2677 22.91 11.2677 23.3555C11.2677 23.8009 10.9033 24.1654 10.4578 24.1654Z" fill="#172069"/>
<path d="M14.5984 30.027H3.58382C3.13838 30.027 2.77393 29.6625 2.77393 29.2171C2.77393 28.7717 3.13838 28.4072 3.58382 28.4072H14.5984C15.0439 28.4072 15.4083 28.7717 15.4083 29.2171C15.4083 29.6625 15.054 30.027 14.5984 30.027Z" fill="#172069"/>
<path d="M15.7627 35.8988H8.61532C8.16987 35.8988 7.80542 35.5343 7.80542 35.0889C7.80542 34.6434 8.16987 34.279 8.61532 34.279H15.7627C16.2081 34.279 16.5726 34.6434 16.5726 35.0889C16.5726 35.5343 16.2182 35.8988 15.7627 35.8988Z" fill="#172069"/>
</g>
<defs>
<clipPath id="clip0_419_713">
<rect width="45" height="45.9415" fill="white"/>
</clipPath>
</defs>
</svg>
