<svg width="50" height="44" viewBox="0 0 50 44" fill="none" xmlns="http://www.w3.org/2000/svg">
<g clip-path="url(#clip0_419_677)">
<path d="M50.0001 5.06319V33.7223H33.8287L28.0793 43.2144L21.9747 33.7223H7.39673V29.6804H45.9626V5.06319H50.0001Z" fill="#D9F6FF"/>
<path d="M25.5813 43.9024C25.2906 43.9024 25.0107 43.7519 24.8599 43.5047L19.0029 34.3996H4.89868C4.42495 34.3996 4.03735 34.0126 4.03735 33.5396V32.3141C4.03735 31.8411 4.42495 31.4541 4.89868 31.4541C5.37241 31.4541 5.76001 31.8411 5.76001 32.3141V32.6796H19.4766C19.7673 32.6796 20.0473 32.8301 20.198 33.0773L25.5597 41.4085L30.5985 33.0881C30.7492 32.8301 31.0292 32.6688 31.3306 32.6688H46.6407V5.75118H46.3608C45.8871 5.75118 45.4995 5.36419 45.4995 4.89119C45.4995 4.4182 45.8871 4.0312 46.3608 4.0312H47.502C47.9758 4.0312 48.3634 4.4182 48.3634 4.89119V33.5503C48.3634 34.0233 47.9758 34.4103 47.502 34.4103H31.8151L26.3134 43.4939C26.1627 43.7519 25.8827 43.9024 25.592 43.9132C25.5813 43.9024 25.5813 43.9024 25.5813 43.9024Z" fill="#172069"/>
<path d="M43.4647 30.3791H0.861326C0.387597 30.3791 0 29.9921 0 29.5191V0.859989C0 0.386995 0.387597 0 0.861326 0H43.4647C43.9384 0 44.326 0.386995 44.326 0.859989V29.5191C44.326 29.9921 43.9492 30.3791 43.4647 30.3791ZM1.72265 28.6591H42.6034V1.71998H1.72265V28.6591Z" fill="#172069"/>
<path d="M36.2727 23.7142H8.91479C8.6241 23.7142 8.37646 23.4777 8.37646 23.1767V6.94441C8.37646 6.65417 8.61333 6.40692 8.91479 6.40692H36.2727C36.5634 6.40692 36.811 6.64342 36.811 6.94441V23.1767C36.811 23.467 36.5634 23.7142 36.2727 23.7142ZM9.45312 22.6392H35.7343V7.47116H9.45312V22.6392Z" fill="#172069"/>
<path d="M14.0613 19.6185C13.7706 19.6185 13.5229 19.382 13.5229 19.081V8.95464C13.5229 8.66439 13.7598 8.41714 14.0613 8.41714C14.352 8.41714 14.5996 8.65364 14.5996 8.95464V19.081C14.5996 19.3713 14.3627 19.6185 14.0613 19.6185Z" fill="#172069"/>
<path d="M16.3652 19.6185C16.0745 19.6185 15.8269 19.382 15.8269 19.081V8.95464C15.8269 8.66439 16.0638 8.41714 16.3652 8.41714C16.6667 8.41714 16.9036 8.65364 16.9036 8.95464V19.081C16.8928 19.3713 16.6559 19.6185 16.3652 19.6185Z" fill="#172069"/>
<path d="M18.551 19.6185C18.2603 19.6185 18.0127 19.382 18.0127 19.081V8.95464C18.0127 8.66439 18.2496 8.41714 18.551 8.41714C18.8417 8.41714 19.0894 8.65364 19.0894 8.95464V19.081C19.0894 19.3713 18.8525 19.6185 18.551 19.6185Z" fill="#172069"/>
<path d="M20.7258 19.6185C20.4351 19.6185 20.1875 19.382 20.1875 19.081V8.95464C20.1875 8.66439 20.4244 8.41714 20.7258 8.41714C21.0165 8.41714 21.2642 8.65364 21.2642 8.95464V19.081C21.2534 19.3713 21.0165 19.6185 20.7258 19.6185Z" fill="#172069"/>
<path d="M22.8359 19.6185C22.5452 19.6185 22.2976 19.382 22.2976 19.081V8.95464C22.2976 8.66439 22.5345 8.41714 22.8359 8.41714C23.1266 8.41714 23.3743 8.65364 23.3743 8.95464V19.081C23.3635 19.3713 23.1266 19.6185 22.8359 19.6185Z" fill="#172069"/>
<path d="M24.9785 19.6723C24.6878 19.6723 24.4402 19.4358 24.4402 19.1348V9.00839C24.4402 8.71815 24.6771 8.4709 24.9785 8.4709C25.2692 8.4709 25.5168 8.7074 25.5168 9.00839V19.1348C25.5168 19.4358 25.28 19.6723 24.9785 19.6723Z" fill="#172069"/>
<path d="M27.1533 19.6185C26.8626 19.6185 26.615 19.382 26.615 19.081V8.95464C26.615 8.66439 26.8519 8.41714 27.1533 8.41714C27.444 8.41714 27.6916 8.65364 27.6916 8.95464V19.081C27.6916 19.3713 27.4548 19.6185 27.1533 19.6185Z" fill="#172069"/>
<path d="M29.113 19.6185C28.8223 19.6185 28.5747 19.382 28.5747 19.081V8.95464C28.5747 8.66439 28.8116 8.41714 29.113 8.41714C29.4145 8.41714 29.6514 8.65364 29.6514 8.95464V19.081C29.6514 19.3713 29.4037 19.6185 29.113 19.6185Z" fill="#172069"/>
<path d="M31.1262 19.6185C30.8355 19.6185 30.5879 19.382 30.5879 19.081V8.95464C30.5879 8.66439 30.8248 8.41714 31.1262 8.41714C31.4169 8.41714 31.6645 8.65364 31.6645 8.95464V19.081C31.6645 19.3713 31.4277 19.6185 31.1262 19.6185Z" fill="#172069"/>
<path d="M12.3601 21.6932C12.0694 21.6932 11.8218 21.4567 11.8218 21.1557V8.95464C11.8218 8.66439 12.0586 8.41714 12.3601 8.41714C12.6508 8.41714 12.8984 8.65364 12.8984 8.95464V21.1665C12.8877 21.4567 12.6508 21.6932 12.3601 21.6932Z" fill="#172069"/>
<path d="M32.8381 21.6932C32.5474 21.6932 32.2998 21.4567 32.2998 21.1557V8.95464C32.2998 8.66439 32.5367 8.41714 32.8381 8.41714C33.1288 8.41714 33.3765 8.65364 33.3765 8.95464V21.1665C33.3765 21.4567 33.1288 21.6932 32.8381 21.6932Z" fill="#172069"/>
</g>
<defs>
<clipPath id="clip0_419_677">
<rect width="50" height="43.9024" fill="white"/>
</clipPath>
</defs>
</svg>
