<svg width="44" height="55" viewBox="0 0 44 55" fill="none" xmlns="http://www.w3.org/2000/svg">
<g clip-path="url(#clip0_419_841)">
<path d="M18.6362 10.5291H11.3589V18.8716H18.6362V10.5291Z" fill="#D9F6FF"/>
<path d="M40.0083 7.73703H27.2927V3.47607H40.0083V7.73703Z" fill="#D9F6FF"/>
<path d="M40.5239 3.47607H27.8083V7.73703H40.5239V3.47607Z" fill="#D9F6FF"/>
<path d="M41.1743 46.1305H2.18654C0.986748 46.1305 0 45.1437 0 43.9327V22.7849C0 22.2915 0.40367 21.8879 0.897044 21.8879H42.475C42.9684 21.8879 43.3721 22.2915 43.3721 22.7849V43.9327C43.3721 45.1437 42.3853 46.1305 41.1743 46.1305ZM1.79409 23.682V43.9327C1.79409 44.157 1.9735 44.3252 2.18654 44.3252H41.1743C41.3986 44.3252 41.5668 44.1458 41.5668 43.9327V23.682H1.79409Z" fill="#172069"/>
<path d="M42.475 23.9959H0.897044C0.40367 23.9959 0 23.5922 0 23.0989V15.0703C0 14.5769 0.40367 14.1733 0.897044 14.1733H8.95923C9.4526 14.1733 9.85627 14.5769 9.85627 15.0703C9.85627 15.5637 9.4526 15.9674 8.95923 15.9674H1.79409V22.2018H41.578V15.9674H33.37C32.8767 15.9674 32.473 15.5637 32.473 15.0703C32.473 14.5769 32.8767 14.1733 33.37 14.1733H42.475C42.9684 14.1733 43.3721 14.5769 43.3721 15.0703V23.0989C43.3721 23.5922 42.9684 23.9959 42.475 23.9959Z" fill="#172069"/>
<path d="M30.4546 15.9674H16.4046C15.9112 15.9674 15.5076 15.5637 15.5076 15.0703C15.5076 14.5769 15.9112 14.1733 16.4046 14.1733H30.4433C30.9367 14.1733 31.3404 14.5769 31.3404 15.0703C31.3404 15.5637 30.9479 15.9674 30.4546 15.9674Z" fill="#172069"/>
<path d="M41.1743 55H2.18654C0.986748 55 0 54.0132 0 52.8134V46.5229C0 45.3119 0.986748 44.3364 2.18654 44.3364H41.1743C42.3853 44.3364 43.3609 45.3231 43.3609 46.5229V52.8134C43.3721 54.0132 42.3853 55 41.1743 55ZM2.18654 46.1305C1.96228 46.1305 1.79409 46.3099 1.79409 46.5229V52.8134C1.79409 53.0377 1.9735 53.2059 2.18654 53.2059H41.1743C41.3986 53.2059 41.5668 53.0265 41.5668 52.8134V46.5229C41.5668 46.2986 41.3874 46.1305 41.1743 46.1305H2.18654Z" fill="#172069"/>
<path d="M21.6861 51.6697C20.5872 51.6697 19.679 50.7727 19.679 49.6626C19.679 48.5637 20.576 47.6555 21.6861 47.6555C22.785 47.6555 23.6932 48.5525 23.6932 49.6626C23.682 50.7727 22.785 51.6697 21.6861 51.6697ZM21.6861 49.4608C21.574 49.4608 21.473 49.5505 21.473 49.6738C21.473 49.7859 21.5627 49.8869 21.6861 49.8869C21.7982 49.8869 21.8991 49.7971 21.8991 49.6738C21.8879 49.5505 21.7982 49.4608 21.6861 49.4608Z" fill="#172069"/>
<path d="M8.91437 30.5892H5.60652C5.11314 30.5892 4.70947 30.1855 4.70947 29.6921V26.3843C4.70947 25.8909 5.11314 25.4872 5.60652 25.4872H8.91437C9.40774 25.4872 9.81141 25.8909 9.81141 26.3843V29.6921C9.81141 30.1855 9.40774 30.5892 8.91437 30.5892ZM6.50356 28.7951H8.01732V27.2813H6.50356V28.7951Z" fill="#172069"/>
<path d="M14.2518 30.5892H10.9551C10.4618 30.5892 10.0581 30.1855 10.0581 29.6921V26.3843C10.0581 25.8909 10.4618 25.4872 10.9551 25.4872H14.263C14.7564 25.4872 15.16 25.8909 15.16 26.3843V29.6921C15.1488 30.1855 14.7564 30.5892 14.2518 30.5892ZM11.8522 28.7951H13.366V27.2813H11.8522V28.7951Z" fill="#172069"/>
<path d="M19.6004 30.5892H16.2926C15.7992 30.5892 15.3955 30.1855 15.3955 29.6921V26.3843C15.3955 25.8909 15.7992 25.4872 16.2926 25.4872H19.6004C20.0938 25.4872 20.4974 25.8909 20.4974 26.3843V29.6921C20.4974 30.1855 20.0938 30.5892 19.6004 30.5892ZM17.1896 28.7951H18.7034V27.2813H17.1896V28.7951Z" fill="#172069"/>
<path d="M8.91437 36.1284H5.60652C5.11314 36.1284 4.70947 35.7248 4.70947 35.2314V31.9235C4.70947 31.4302 5.11314 31.0265 5.60652 31.0265H8.91437C9.40774 31.0265 9.81141 31.4302 9.81141 31.9235V35.2314C9.81141 35.7248 9.40774 36.1284 8.91437 36.1284ZM6.50356 34.3343H8.01732V32.8206H6.50356V34.3343Z" fill="#172069"/>
<path d="M14.2518 36.1284H10.9551C10.4618 36.1284 10.0581 35.7248 10.0581 35.2314V31.9235C10.0581 31.4302 10.4618 31.0265 10.9551 31.0265H14.263C14.7564 31.0265 15.16 31.4302 15.16 31.9235V35.2314C15.1488 35.7248 14.7564 36.1284 14.2518 36.1284ZM11.8522 34.3343H13.366V32.8206H11.8522V34.3343Z" fill="#172069"/>
<path d="M19.6004 36.1284H16.2926C15.7992 36.1284 15.3955 35.7248 15.3955 35.2314V31.9235C15.3955 31.4302 15.7992 31.0265 16.2926 31.0265H19.6004C20.0938 31.0265 20.4974 31.4302 20.4974 31.9235V35.2314C20.4974 35.7248 20.0938 36.1284 19.6004 36.1284ZM17.1896 34.3343H18.7034V32.8206H17.1896V34.3343Z" fill="#172069"/>
<path d="M8.91437 41.6677H5.60652C5.11314 41.6677 4.70947 41.264 4.70947 40.7706V37.4628C4.70947 36.9694 5.11314 36.5657 5.60652 36.5657H8.91437C9.40774 36.5657 9.81141 36.9694 9.81141 37.4628V40.7706C9.81141 41.2752 9.40774 41.6677 8.91437 41.6677ZM6.50356 39.8736H8.01732V38.3598H6.50356V39.8736Z" fill="#172069"/>
<path d="M14.2518 41.6677H10.9551C10.4618 41.6677 10.0581 41.264 10.0581 40.7706V37.4628C10.0581 36.9694 10.4618 36.5657 10.9551 36.5657H14.263C14.7564 36.5657 15.16 36.9694 15.16 37.4628V40.7706C15.1488 41.2752 14.7564 41.6677 14.2518 41.6677ZM11.8522 39.8736H13.366V38.3598H11.8522V39.8736Z" fill="#172069"/>
<path d="M19.6004 41.6677H16.2926C15.7992 41.6677 15.3955 41.264 15.3955 40.7706V37.4628C15.3955 36.9694 15.7992 36.5657 16.2926 36.5657H19.6004C20.0938 36.5657 20.4974 36.9694 20.4974 37.4628V40.7706C20.4974 41.2752 20.0938 41.6677 19.6004 41.6677ZM17.1896 39.8736H18.7034V38.3598H17.1896V39.8736Z" fill="#172069"/>
<path d="M33.3699 30.5892H30.0621C29.5687 30.5892 29.165 30.1855 29.165 29.6921V26.3843C29.165 25.8909 29.5687 25.4872 30.0621 25.4872H33.3699C33.8633 25.4872 34.267 25.8909 34.267 26.3843V29.6921C34.267 30.1855 33.8633 30.5892 33.3699 30.5892ZM30.9591 28.7951H32.4729V27.2813H30.9591V28.7951Z" fill="#172069"/>
<path d="M38.7073 30.5892H35.3995C34.9061 30.5892 34.5024 30.1855 34.5024 29.6921V26.3843C34.5024 25.8909 34.9061 25.4872 35.3995 25.4872H38.7073C39.2007 25.4872 39.6044 25.8909 39.6044 26.3843V29.6921C39.6044 30.1855 39.2007 30.5892 38.7073 30.5892ZM36.2965 28.7951H37.8103V27.2813H36.2965V28.7951Z" fill="#172069"/>
<path d="M33.3699 36.1284H30.0621C29.5687 36.1284 29.165 35.7248 29.165 35.2314V31.9235C29.165 31.4302 29.5687 31.0265 30.0621 31.0265H33.3699C33.8633 31.0265 34.267 31.4302 34.267 31.9235V35.2314C34.267 35.7248 33.8633 36.1284 33.3699 36.1284ZM30.9591 34.3343H32.4729V32.8206H30.9591V34.3343Z" fill="#172069"/>
<path d="M38.7073 36.1284H35.3995C34.9061 36.1284 34.5024 35.7248 34.5024 35.2314V31.9235C34.5024 31.4302 34.9061 31.0265 35.3995 31.0265H38.7073C39.2007 31.0265 39.6044 31.4302 39.6044 31.9235V35.2314C39.6044 35.7248 39.2007 36.1284 38.7073 36.1284ZM36.2965 34.3343H37.8103V32.8206H36.2965V34.3343Z" fill="#172069"/>
<path d="M33.3699 41.6677H30.0621C29.5687 41.6677 29.165 41.264 29.165 40.7706V37.4628C29.165 36.9694 29.5687 36.5657 30.0621 36.5657H33.3699C33.8633 36.5657 34.267 36.9694 34.267 37.4628V40.7706C34.267 41.2752 33.8633 41.6677 33.3699 41.6677ZM30.9591 39.8736H32.4729V38.3598H30.9591V39.8736Z" fill="#172069"/>
<path d="M38.7073 41.6677H35.3995C34.9061 41.6677 34.5024 41.264 34.5024 40.7706V37.4628C34.5024 36.9694 34.9061 36.5657 35.3995 36.5657H38.7073C39.2007 36.5657 39.6044 36.9694 39.6044 37.4628V40.7706C39.6044 41.2752 39.2007 41.6677 38.7073 41.6677ZM36.2965 39.8736H37.8103V38.3598H36.2965V39.8736Z" fill="#172069"/>
<path d="M16.2478 19.9816C15.7544 19.9816 15.3507 19.578 15.3507 19.0846V11.6391H9.85634V19.0846C9.85634 19.578 9.45267 19.9816 8.9593 19.9816C8.46593 19.9816 8.06226 19.578 8.06226 19.0846V10.7421C8.06226 10.2487 8.46593 9.84503 8.9593 9.84503H16.2366C16.7299 9.84503 17.1336 10.2487 17.1336 10.7421V19.0846C17.1448 19.5892 16.7412 19.9816 16.2478 19.9816Z" fill="#172069"/>
<path d="M34.3792 19.9816H29.1651C28.6717 19.9816 28.2681 19.578 28.2681 19.0846C28.2681 18.5912 28.6717 18.1876 29.1651 18.1876H34.3792C34.8726 18.1876 35.2762 18.5912 35.2762 19.0846C35.2762 19.578 34.8838 19.9816 34.3792 19.9816Z" fill="#172069"/>
<path d="M17.3914 19.9816H7.47907C6.9857 19.9816 6.58203 19.578 6.58203 19.0846C6.58203 18.5912 6.9857 18.1876 7.47907 18.1876H17.3914C17.8848 18.1876 18.2885 18.5912 18.2885 19.0846C18.2885 19.578 17.8848 19.9816 17.3914 19.9816Z" fill="#172069"/>
<path d="M33.3476 19.9816H30.4547C29.9613 19.9816 29.5576 19.578 29.5576 19.0846V10.7421C29.5576 10.2487 29.9613 9.84503 30.4547 9.84503C30.948 9.84503 31.3517 10.2487 31.3517 10.7421V18.1875H32.4506V10.7421C32.4506 10.2487 32.8543 9.84503 33.3476 9.84503C33.841 9.84503 34.2447 10.2487 34.2447 10.7421V19.0846C34.2447 19.5892 33.841 19.9816 33.3476 19.9816Z" fill="#172069"/>
<path d="M41.3536 11.6391H22.2017C21.7084 11.6391 21.3047 11.2355 21.3047 10.7421V0.897044C21.3047 0.40367 21.7084 0 22.2017 0H41.3536C41.847 0 42.2507 0.40367 42.2507 0.897044V10.7421C42.2507 11.2355 41.847 11.6391 41.3536 11.6391ZM23.0988 9.84506H40.4566V1.79409H23.0988V9.84506Z" fill="#172069"/>
<path d="M38.1356 8.8471H25.42C24.9266 8.8471 24.5229 8.44343 24.5229 7.95006V3.6891C24.5229 3.19572 24.9266 2.79205 25.42 2.79205H38.1356C38.629 2.79205 39.0326 3.19572 39.0326 3.6891V7.95006C39.0326 8.44343 38.629 8.8471 38.1356 8.8471ZM26.317 7.05301H37.2385V4.58614H26.317V7.05301Z" fill="#172069"/>
<path d="M13.6015 14.577H11.6055C11.1122 14.577 10.7085 14.1733 10.7085 13.6799C10.7085 13.1866 11.1122 12.7829 11.6055 12.7829H13.6015C14.0948 12.7829 14.4985 13.1866 14.4985 13.6799C14.4985 14.1733 14.0948 14.577 13.6015 14.577Z" fill="#172069"/>
<path d="M13.6015 17.2345H11.6055C11.1122 17.2345 10.7085 16.8308 10.7085 16.3374C10.7085 15.844 11.1122 15.4404 11.6055 15.4404H13.6015C14.0948 15.4404 14.4985 15.844 14.4985 16.3374C14.4985 16.8308 14.0948 17.2345 13.6015 17.2345Z" fill="#172069"/>
</g>
<defs>
<clipPath id="clip0_419_841">
<rect width="43.3721" height="55" fill="white"/>
</clipPath>
</defs>
</svg>
